<?xml version="1.0"?>
<svg xmlns="http://www.w3.org/2000/svg" viewBox="0 0 64 64" width="512" height="512"><g id="Exchange"><rect x="15" y="3" width="46" height="24" style="fill:#5eac24"/><rect x="3" y="37" width="46" height="24" style="fill:#ffb655"/><path d="M5,57V37H3V61H49V59H7A2,2,0,0,1,5,57Z" style="fill:#ffa733"/><path d="M17,23V3H15V27H61V25H19A2,2,0,0,1,17,23Z" style="fill:#4e901e"/><path d="M46,15a8,8,0,0,1-8,8H54a3,3,0,0,1,3-3V10a3,3,0,0,1-3-3H38A8,8,0,0,1,46,15Z" style="fill:#ebfec0"/><path d="M22,23H38A8,8,0,0,1,38,7H22a3,3,0,0,1-3,3V20A3,3,0,0,1,22,23Z" style="fill:#ebfec0"/><path d="M18,49a8,8,0,0,1,8-8H10a3,3,0,0,1-3,3V54a3,3,0,0,1,3,3H26A8,8,0,0,1,18,49Z" style="fill:#ffdaaa"/><path d="M42,41H26a8,8,0,0,1,0,16H42a3,3,0,0,1,3-3V44A3,3,0,0,1,42,41Z" style="fill:#ffdaaa"/><circle cx="38" cy="15" r="8" style="fill:#5eac24"/><circle cx="26" cy="49" r="8" style="fill:#ff9811"/><path d="M54.75,27,51,33h3V45a2,2,0,0,1-2,2H49v4h5a4,4,0,0,0,4-4V33h3l-3.75-6L56,25Z" style="fill:#b2fa09"/><path d="M9.25,37,13,31H10V19a2,2,0,0,1,2-2h3V13H10a4,4,0,0,0-4,4V31H3l3.75,6L8,39Z" style="fill:#d80027"/><path d="M62,27V3a1,1,0,0,0-1-1H15a1,1,0,0,0-1,1v9H10a5.006,5.006,0,0,0-5,5V30H3a1,1,0,0,0-.848,1.53L4.946,36H3a1,1,0,0,0-1,1V61a1,1,0,0,0,1,1H49a1,1,0,0,0,1-1V52h4a5.006,5.006,0,0,0,5-5V34h2a1,1,0,0,0,.848-1.53L59.054,28H61A1,1,0,0,0,62,27ZM50.125,33.485A1,1,0,0,0,51,34h2V45a1,1,0,0,1-1,1H50V37a1,1,0,0,0-1-1H11.054l2.794-4.47A1,1,0,0,0,13,30H11V19a1,1,0,0,1,1-1h2v9a1,1,0,0,0,1,1H52.946l-2.794,4.47A1,1,0,0,0,50.125,33.485ZM6,32a1,1,0,0,0,1-1V17a3,3,0,0,1,3-3h4v2H12a3,3,0,0,0-3,3V31a1,1,0,0,0,1,1h1.2L8,37.113,4.8,32ZM48,60H4V38H6.2l.956,1.53a1,1,0,0,0,1.7,0L9.8,38H48ZM58,32a1,1,0,0,0-1,1V47a3,3,0,0,1-3,3H50V48h2a3,3,0,0,0,3-3V33a1,1,0,0,0-1-1H52.8L56,26.887,59.2,32Zm2-6H57.8l-.956-1.53a1.039,1.039,0,0,0-1.7,0L54.2,26H16V4H60Z"/><path d="M19,21a2,2,0,0,1,2,2,1,1,0,0,0,1,1H54a1,1,0,0,0,1-1,2,2,0,0,1,2-2,1,1,0,0,0,1-1V10a1,1,0,0,0-1-1,2,2,0,0,1-2-2,1,1,0,0,0-1-1H22a1,1,0,0,0-1,1,2,2,0,0,1-2,2,1,1,0,0,0-1,1V20A1,1,0,0,0,19,21Zm12-6a7,7,0,1,1,7,7A7.008,7.008,0,0,1,31,15ZM53.126,8A4.016,4.016,0,0,0,56,10.874v8.252A4.016,4.016,0,0,0,53.126,22H43.644a8.978,8.978,0,0,0,0-14ZM20,10.874A4.016,4.016,0,0,0,22.874,8h9.482a8.978,8.978,0,0,0,0,14H22.874A4.016,4.016,0,0,0,20,19.126Z"/><path d="M45,43a2,2,0,0,1-2-2,1,1,0,0,0-1-1H10a1,1,0,0,0-1,1,2,2,0,0,1-2,2,1,1,0,0,0-1,1V54a1,1,0,0,0,1,1,2,2,0,0,1,2,2,1,1,0,0,0,1,1H42a1,1,0,0,0,1-1,2,2,0,0,1,2-2,1,1,0,0,0,1-1V44A1,1,0,0,0,45,43ZM33,49a7,7,0,1,1-7-7A7.008,7.008,0,0,1,33,49ZM10.874,56A4.016,4.016,0,0,0,8,53.126V44.874A4.016,4.016,0,0,0,10.874,42h9.482a8.978,8.978,0,0,0,0,14ZM44,53.126A4.016,4.016,0,0,0,41.126,56H31.644a8.978,8.978,0,0,0,0-14h9.482A4.016,4.016,0,0,0,44,44.874Z"/><path d="M22,49h1v1H22a1,1,0,0,0,0,2h1.142A4,4,0,0,0,27,55h1a1,1,0,0,0,0-2H27a1.993,1.993,0,0,1-1.722-1H27a1,1,0,0,0,0-2H25V49h2a1,1,0,0,0,0-2H25.278A1.993,1.993,0,0,1,27,46h1a1,1,0,0,0,0-2H27a4,4,0,0,0-3.858,3H22a1,1,0,0,0,0,2Z"/><path d="M39,21V19.816A2.993,2.993,0,0,0,38,14a1,1,0,1,1,1-1,1,1,0,0,0,2,0,3,3,0,0,0-2-2.816V9a1,1,0,0,0-2,0v1.184A2.993,2.993,0,0,0,38,16a1,1,0,1,1-1,1,1,1,0,0,0-2,0,3,3,0,0,0,2,2.816V21a1,1,0,0,0,2,0Z"/></g></svg>
