<svg xmlns="http://www.w3.org/2000/svg" viewBox="0 0 48.09 50"><defs><style>.cls-1{isolation:isolate;}.cls-2{fill:#ebac16;}.cls-3{fill:#f5bf1d;}.cls-4{fill:#e2483e;}.cls-5{opacity:0.55;}.cls-5,.cls-6{mix-blend-mode:multiply;}.cls-6,.cls-7{fill:#cc8484;}.cls-6{opacity:0.5;}.cls-8{fill:#82ba46;}</style></defs><title>lamp</title><g class="cls-1"><g id="圖層_1" data-name="圖層 1"><rect class="cls-2" x="35.47" y="0.03" width="1.55" height="10.26"/><path class="cls-3" d="M38.43,10.29a2.18,2.18,0,0,1-4.36,0,2.18,2.18,0,0,1,4.36,0Z"/><path class="cls-3" d="M36,29.71h.89l.07-.05a24.48,24.48,0,0,0,0-18.33s-.11-.06-.26-.08h-.53c-.1,0-.17.05-.18.1a24.85,24.85,0,0,0,0,18.32A.1.1,0,0,1,36,29.71Z"/><path class="cls-4" d="M35.65,29.71l-.21-.17a9.51,9.51,0,0,1-7.43-9,9.51,9.51,0,0,1,7.43-9l.24-.2h-.3c-6,.72-10.54,4.58-10.54,9.24s4.44,8.43,10.29,9.22Z"/><path class="cls-3" d="M28,20.49a9.51,9.51,0,0,0,7.43,9.05,11.56,11.56,0,0,1,0-18.09A9.51,9.51,0,0,0,28,20.49Z"/><path class="cls-4" d="M37.54,11.25h-.3l.24.2a9.51,9.51,0,0,1,7.43,9,9.51,9.51,0,0,1-7.43,9.05l-.2.17h.51c5.86-.79,10.3-4.62,10.3-9.22S43.52,12,37.54,11.25Z"/><path class="cls-3" d="M44.91,20.49a9.51,9.51,0,0,0-7.43-9,11.55,11.55,0,0,1,0,18.09A9.51,9.51,0,0,0,44.91,20.49Z"/><path class="cls-4" d="M35.44,29.54a1.35,1.35,0,0,1,.17.17h.64L36,29.66v0a24.51,24.51,0,0,1,0-18.29v0l.44-.08h.08l.35.06.09,0a24.48,24.48,0,0,1,0,18.33l-.09,0-.18,0h.72a.56.56,0,0,1,.09-.17,11.55,11.55,0,0,0,0-18.09l-.12-.1a.71.71,0,0,0-.14-.1H35.71l-.15.1-.12.1a11.56,11.56,0,0,0,0,18.09Z"/><rect class="cls-4" x="31.82" y="10.58" width="9.29" height="1.54"/><rect class="cls-4" x="31.01" y="9.9" width="10.91" height="1.24"/><rect class="cls-4" x="33.28" y="29.68" width="6.36" height="1.05"/><rect class="cls-4" x="32.73" y="29.21" width="7.46" height="0.85"/><rect class="cls-3" x="33.07" y="30.95" width="0.32" height="6.34"/><rect class="cls-3" x="33.67" y="30.95" width="0.32" height="6.34"/><rect class="cls-3" x="34.28" y="30.95" width="0.32" height="6.34"/><rect class="cls-3" x="34.88" y="30.95" width="0.32" height="6.34"/><rect class="cls-3" x="35.48" y="30.95" width="0.32" height="6.34"/><rect class="cls-3" x="36.09" y="30.95" width="0.32" height="6.34"/><rect class="cls-3" x="36.69" y="30.95" width="0.32" height="6.34"/><rect class="cls-3" x="37.3" y="30.95" width="0.32" height="6.34"/><rect class="cls-3" x="37.9" y="30.95" width="0.32" height="6.34"/><rect class="cls-3" x="38.5" y="30.95" width="0.32" height="6.34"/><rect class="cls-3" x="39.11" y="30.95" width="0.32" height="6.34"/><rect class="cls-3" x="33.07" y="30.95" width="6.36" height="0.45"/><g class="cls-5"><path class="cls-6" d="M31.7,12.16c-4.07,1.55-6.86,4.69-6.86,8.33A7.83,7.83,0,0,0,27.22,26a62.18,62.18,0,0,0,4.05-9.54A9.06,9.06,0,0,0,31.7,12.16Z"/><path class="cls-7" d="M31,10.06v1.08h.46A7.46,7.46,0,0,0,31,10.06Z"/></g><rect class="cls-2" x="13.96" y="36.01" width="1.22" height="3.3"/><polygon class="cls-2" points="13.61 48.7 11.35 47.95 13.61 39.61 15.03 39.27 13.61 48.7"/><polygon class="cls-2" points="15.68 48.7 17.23 47.95 15.29 39.27 14.19 39.47 15.68 48.7"/><polygon class="cls-3" points="13.22 50 15.29 50 15.03 39.32 14.26 39.27 13.22 50"/><rect class="cls-2" x="13.68" width="1.77" height="4.35"/><path class="cls-3" d="M15.86,39.34a1.29,1.29,0,1,1-1.29-1.29A1.29,1.29,0,0,1,15.86,39.34Z"/><path class="cls-8" d="M20.36,5.5H8.77S-2.55,7.13.53,16.73a70.46,70.46,0,0,0,9,17.66H19.64a70.24,70.24,0,0,0,9-17.66C31.68,7.13,20.36,5.5,20.36,5.5Z"/><path class="cls-3" d="M19.5,5.5H18.06s6.81,1.63,5,11.23a92.71,92.71,0,0,1-5.4,17.66h1.26a75.34,75.34,0,0,0,7.63-17.66C29.13,7.13,19.5,5.5,19.5,5.5Z"/><path class="cls-3" d="M11.08,5.5H9.64S0,7.13,2.63,16.73a75.08,75.08,0,0,0,7.62,17.66h1.26A93.12,93.12,0,0,1,6.12,16.73C4.26,7.13,11.08,5.5,11.08,5.5Z"/><path class="cls-3" d="M17.3,5.5H15.86s2.52,1.63,1.84,11.23-2,17.66-2,17.66H17a112,112,0,0,0,4.23-17.66C22.64,7.13,17.3,5.5,17.3,5.5Z"/><path class="cls-3" d="M13.28,5.5H11.83S6.5,7.13,8,16.73a112,112,0,0,0,4.23,17.66h1.26s-1.32-8.06-2-17.66S13.28,5.5,13.28,5.5Z"/><path class="cls-3" d="M15.22,5.5H13.91S12.64,7.13,13,16.73s1,17.66,1,17.66h1.14s.66-8.06,1-17.66S15.22,5.5,15.22,5.5Z"/><rect class="cls-3" x="9.37" y="34.39" width="10.39" height="1.63"/><rect class="cls-3" x="8.25" y="3.87" width="12.63" height="1.63"/></g></g></svg>