<svg id="Layer_3" enable-background="new 0 0 64 64" height="512" viewBox="0 0 64 64" width="512" xmlns="http://www.w3.org/2000/svg"><path d="m32 58h30v-2c0-3.314-2.686-6-6-6 0-4.418-3.582-8-8-8h-2c-4.418 0-8 3.582-8 8-3.314 0-6 2.686-6 6z" fill="#d9de6d"/><circle cx="55" cy="59" fill="#645b54" r="3"/><ellipse cx="53.5" cy="59" fill="#857970" rx="1.5" ry="2.584"/><circle cx="39" cy="59" fill="#645b54" r="3"/><ellipse cx="37.5" cy="59" fill="#857970" rx="1.5" ry="2.584"/><path d="m52 52h-10v-1c0-2.761 2.239-5 5-5 2.761 0 5 2.239 5 5z" fill="#96c5da"/><path d="m9 20-5.609-7.212c-.902-1.159-1.391-2.585-1.391-4.053 0-1.751.696-3.43 1.934-4.668l.133-.133c1.237-1.238 2.917-1.934 4.668-1.934h.531c1.751 0 3.43.696 4.668 1.934l.133.133c1.237 1.237 1.933 2.917 1.933 4.668 0 1.468-.489 2.894-1.391 4.053z" fill="#e0747c"/><circle cx="9" cy="9" fill="#baae9b" r="3"/><ellipse cx="7.5" cy="9" fill="#f8e8ce" rx="1.5" ry="2.584"/><path d="m20 18h28c3.314 0 6 2.686 6 6 0 3.314-2.686 6-6 6h-32c-7.732 0-14 6.268-14 14 0 7.732 6.268 14 14 14h10v-8h-10c-3.314 0-6-2.686-6-6 0-3.314 2.686-6 6-6h32c7.732 0 14-6.268 14-14 0-7.732-6.268-14-14-14h-28z" fill="#857970"/><path d="m26 55h-10c-6.065 0-11-4.935-11-11s4.935-11 11-11h32c4.962 0 9-4.038 9-9s-4.038-9-9-9h-28v-2h28c6.065 0 11 4.935 11 11s-4.935 11-11 11h-32c-4.962 0-9 4.038-9 9s4.038 9 9 9h10z" fill="#ccc"/></svg>