<svg id="圖層_1" data-name="圖層 1" xmlns="http://www.w3.org/2000/svg" xmlns:xlink="http://www.w3.org/1999/xlink" viewBox="0 0 1140 507.63"><defs><style>.cls-1{fill:url(#linear-gradient);}.cls-2{fill:url(#linear-gradient-2);}.cls-3{fill:teal;}</style><linearGradient id="linear-gradient" x1="-2200.96" y1="334.87" x2="-2200.96" y2="-118.11" gradientTransform="matrix(-1, 0, 0, 1, -1642.39, 0)" gradientUnits="userSpaceOnUse"><stop offset="0" stop-color="#cfffdb"/><stop offset="1" stop-color="#8dffd6"/></linearGradient><linearGradient id="linear-gradient-2" x1="558.57" y1="437.54" x2="558.57" y2="133.31" gradientUnits="userSpaceOnUse"><stop offset="0" stop-color="#beffcc"/><stop offset="1" stop-color="#7cffd2"/></linearGradient></defs><title>img</title><polygon class="cls-1" points="1115.93 254.07 1077.4 254.07 1077.4 14.97 989.73 14.97 989.73 254.07 944.23 254.07 944.23 145.86 923.99 145.86 923.99 107.14 891.24 107.14 891.24 211.38 884.67 211.38 884.67 97.21 869.26 97.21 869.26 150.82 853.84 150.82 853.84 51.55 802.78 51.55 802.78 204.43 745.94 204.43 745.94 73.39 695.84 73.39 695.84 169.69 663.08 169.69 663.08 106.15 576.94 106.15 576.94 192.52 540.73 192.52 540.73 47.57 508.94 47.57 508.94 130.97 468.47 130.97 468.47 47.57 435.71 47.57 435.71 194.5 378.87 194.5 378.87 158.76 348.04 158.76 348.04 116.08 315.29 116.08 315.29 210.39 276.75 210.39 276.75 47.57 228.65 47.57 228.65 215.35 167.88 215.35 167.88 146.85 133.47 146.85 133.47 47.57 85.03 47.57 85.03 193.51 55.83 193.51 55.83 53.53 1.21 53.53 1.21 396.13 1115.93 396.13 1115.93 254.07"/><polygon class="cls-2" points="38.13 299.41 74.11 299.41 74.11 146.89 155.98 146.89 155.98 299.41 198.47 299.41 198.47 194.19 217.36 194.19 217.36 156.54 247.94 156.54 247.94 257.9 254.07 257.9 254.07 146.89 268.47 146.89 268.47 199.02 282.86 199.02 282.86 102.49 330.54 102.49 330.54 251.14 383.62 251.14 383.62 123.72 430.4 123.72 430.4 217.36 460.98 217.36 460.98 155.58 541.42 155.58 541.42 239.56 575.23 239.56 575.23 98.63 604.92 98.63 604.92 179.71 642.7 179.71 642.7 98.63 673.29 98.63 673.29 241.49 726.37 241.49 726.37 206.74 755.15 206.74 755.15 165.23 785.74 165.23 785.74 256.94 821.73 256.94 821.73 98.63 866.64 98.63 866.64 261.76 923.38 261.76 923.38 195.16 955.51 195.16 955.51 98.63 1000.75 98.63 1000.75 240.53 1028.01 240.53 1028.01 104.42 1079.01 104.42 1079.01 437.54 38.13 437.54 38.13 299.41"/><path class="cls-3" d="M123.63,302.4C119.46,162.12,82,26.75,77.4,10.57H74.1c-9.5,83.34-10.17,195.77-10.95,325.8q-.1,18.33-.22,37.07C94.16,345.06,120.15,307.53,123.63,302.4Zm-16.69-57.81H111v13.75h-4.07Zm-8.87,0h4.08v13.75H98.07Zm-8.86-54.43h4.07v13.75H89.21Zm0,21.85h4.07v13.75H89.21Zm0,32.58h4.07v13.75H89.21ZM80.47,102.42h4.08v13.75H80.47Zm0,18h4.08v13.75H80.47Zm0,16.91h4.08V151.1H80.47Zm-.56,52.81v13.75H75.84V190.16Zm-8.15-69.72h4.08v13.75H71.76Zm2,146.22h4.07v13.75H73.8ZM137.67,117c14.94-.65,28.36-2.43,28.36-6.73,0-6.51-30.66-7.25-50.89-7C107.21,71.3,98.53,41.44,90,8.34H81.41c3,10.49,42.53,150.08,46.71,294.65l0,.72-.39.59c-.3.44-30.08,44.83-65.62,75.83l-1.16,1q-.13,19.25-.3,38.87h86.82c0-81.72-3.74-143.66-9.82-194.49h0Zm-14,57.57h-4.07V160.86h4.07Zm0-23.51h-4.07V137.35h4.07Z"/><path class="cls-3" d="M296.16,299.55v117h-5.33v-117Zm-18.46,0v117h9.83v-117Zm84.54,0v117H355.8V376.92H305.9v39.67h-6.44v-117ZM345,328.45h9.8V304.29H345Zm-23.64,0h18.94V304.29H321.38Zm-14.5,0h9.8V304.29h-9.8Zm48.92,30.6H305.9v10.09h49.9Zm0-23.05H305.9v17h49.9Zm9.75-36.45v117h5.32v-117Zm8.62,0v117H384v-117ZM513.4,283.5H148.3v11.3H513.4ZM291.52,255.57v24.48h7V261.91H314v18.14h9V261.91H338.4v18.14h9V261.91h15.47v18.14h7.35V255.57Zm84.41-9.42H285.77v5.95h90.16ZM275.08,387H155.14v29.59H275.08Zm0-5H145.75v-7.19H275.08Zm-83.19-82.43v69.21H173.36V299.55Zm21.66,0v69.21H195V299.55Zm-43.32,0v69.21H155.14V299.55Zm104.85,0v69.21H260V299.55Zm-18.21,0v69.21H238.33V299.55Zm-21.66,0v69.21H216.68V299.55Zm151.41,117H506.56V387H386.62Zm0-41.8H516V382H386.62Zm101.73-75.24v69.21H469.81V299.55Zm-21.66,0v69.21H448.15V299.55Zm39.87,0v69.21H491.47V299.55Zm-104.85,0v69.21H386.62V299.55Zm21.66,0v69.21H404.83V299.55Zm21.66,0v69.21H426.49V299.55Z"/><path class="cls-3" d="M948.5,357.39h-5.4V311.07h5.39Zm59.2,3.93h5.41v55.27h-70V361.32h5.4v55.27h3.62V361.32h52v55.27h3.62Zm-11.87,29.55a17.73,17.73,0,1,0-35.45,0v25.72h3.45V391.13a14.28,14.28,0,1,1,28.55,0v25.46h3.45Zm8.25-83.73v-.25a26,26,0,0,0-52,0v.25h10.17c0-.22,0-.44,0-.66a15.83,15.83,0,0,1,31.65,0c0,.22,0,.44,0,.66Zm-52,50.25h9.25V335.9a3.91,3.91,0,0,1,7.82,0v21.49h5V335.9a3.91,3.91,0,0,1,7.82,0v21.49h5V335.9a3.91,3.91,0,0,1,7.82,0v21.49h9.25V311.07H993.25a15.83,15.83,0,0,1-30.3,0H952.12Zm48.55-83.25a38.36,38.36,0,0,0-45.16,0h-12.4l34.73-59.67,35.27,59.67ZM978.1,244.51a8.22,8.22,0,1,0,8.23,8.22A8.22,8.22,0,0,0,978.1,244.51Zm-6.61,8.22a6.61,6.61,0,1,1,6.61,6.61A6.61,6.61,0,0,1,971.49,252.73Zm6.1,0a.51.51,0,0,0,.51.52h4.24a.52.52,0,0,0,0-1h-3.72v-4.77a.52.52,0,0,0-1,0Zm30.11,104.66h5.41V311.07h-5.41Zm-16.63-50.91a13,13,0,1,1-13-13A13,13,0,0,1,991.07,306.48Zm-8.82-4.14a2.47,2.47,0,1,0,0-3.5A2.47,2.47,0,0,0,982.25,302.34Zm-6.62-4.19a2.47,2.47,0,1,0,2.47-2.47A2.47,2.47,0,0,0,975.63,298.15ZM969.77,309a2.48,2.48,0,1,0-2.47-2.48A2.48,2.48,0,0,0,969.77,309Zm4.19,1.67a2.47,2.47,0,1,0,0,3.5A2.47,2.47,0,0,0,974,310.63Zm0-11.79a2.47,2.47,0,1,0,0,3.5A2.49,2.49,0,0,0,974,298.84Zm6.61,16a2.47,2.47,0,1,0-2.47,2.47A2.46,2.46,0,0,0,980.57,314.82Zm.77-8.34a3.24,3.24,0,1,0-3.24,3.25A3.24,3.24,0,0,0,981.34,306.48Zm4.4,4.15a2.47,2.47,0,1,0,0,3.5A2.46,2.46,0,0,0,985.74,310.63Zm.7-6.62a2.48,2.48,0,1,0,2.47,2.47A2.48,2.48,0,0,0,986.44,304Zm26.66-25.94H999.19a29.93,29.93,0,0,0-5.93-3.93,34.19,34.19,0,0,0-30.34,0,29.93,29.93,0,0,0-5.93,3.93H943.11v29.07h5.39v-.42a29.6,29.6,0,0,1,59.2,0v.42h5.41Zm-34.19-77.93v-14.7h5.46v-2.11h-5.46v-5h-2v5h-5.09v2.11h5.09v14.08l-40.18,67.41H875.55v5.24H939l38.8-64.66,39,64.66h63.46v-5.24h-61.18Zm-75.15,56.39h-8.38v1.57h8.38Zm0-2.6h-8.38v1.57h8.38Zm0-15.62h-8.38v1.57h8.38Zm0,13h-8.38v1.58h8.38ZM895.38,263h8.38v-1.27h-8.38Zm8.38-3.87h-8.38v1.58h8.38Zm0-10.41h-8.38v1.58h8.38Zm9.85-16.64h2.76a4,4,0,0,0-1.38-.24A3.93,3.93,0,0,0,913.61,232.08ZM903.76,236c0-.11,0-.22,0-.32H895.4c0,.1,0,.21,0,.32v1.25h8.38Zm0,4.88h-8.38v1.58h8.38Zm-8.15-6.23h7.92a4.2,4.2,0,0,0-1-1.58h-6A4.2,4.2,0,0,0,895.61,234.68Zm8.15,11.44h-8.38v1.57h8.38Zm-19.63-86.76h-9.91l3.55,25.95Zm35,99.77H910.8v1.58h8.38Zm21.67-55.22H873.71l-7.24,10.56h81.61ZM939,263V219.1H875.55V263h18.8V236a5.19,5.19,0,0,1,1.82-3.95h0a5.21,5.21,0,0,1,8.62,3.95v27h5V236a5.19,5.19,0,0,1,1.82-3.95h0A5.2,5.2,0,0,1,920.2,236v27Zm-19.83-6.47H910.8v1.57h8.38ZM911,234.68H919a4.23,4.23,0,0,0-1-1.58h-6A4.36,4.36,0,0,0,911,234.68Zm29.32-75.32h-9.92l6.37,25.95ZM906.1,60.46H901V58.35h5.09v-5h2v5h5.46v2.11h-5.46v19.4H910v1.82h-2l.68,2.58h3.2v1.82H909.2l30.47,115.26H923.32L908.23,86.08h-.11l13.44,115.26h-6.45V163.4l-7.83-16.81-7.83,16.81v37.94H893L906.43,86.08h-.1L891.24,201.34H874.89L905.36,86.08h-2.71V84.26h3.19l.68-2.58h-2V79.86h1.58Zm1.51,21.22.3,2.58H908l-.34-2.58Zm-1,2.58h.07l.31-2.58h-.05ZM902,164v37.37h10.51V164l-5.25-11.29Zm-3.83,68.11H901a4.09,4.09,0,0,0-2.76,0ZM910.8,263h8.38v-1.27H910.8Zm8.38-24.69H910.8v1.57h8.38Zm0,2.6H910.8v1.58h8.38Zm0-4.88c0-.11,0-.22,0-.32h-8.35c0,.1,0,.21,0,.32v1.25h8.38Zm0,7.49H910.8v1.57h8.38Zm0,5.2H910.8v1.58h8.38Zm0,2.6H910.8v1.58h8.38Zm0-5.2H910.8v1.57h8.38Zm0,7.81H910.8v1.57h8.38Zm-15.42-10.41h-8.38v1.57h8.38ZM875.55,319h12.2V297.75a19.53,19.53,0,1,1,39,0V319H939V276.1H875.55Zm0,42.36H939v55.27H875.55Zm14,55.27H893V391.13a14.28,14.28,0,1,1,28.56,0v25.46H925V390.87a17.73,17.73,0,1,0-35.45,0ZM917.6,319V297a3.91,3.91,0,0,0-3.91-3.91h0a3.91,3.91,0,0,0-3.91,3.91v22h-5V297a3.91,3.91,0,0,0-3.91-3.91h0A3.91,3.91,0,0,0,897,297v22h-5.61V297.75a15.93,15.93,0,1,1,31.85,0V319Zm-8.05-32.22a2.28,2.28,0,1,0-2.27,2.27A2.28,2.28,0,0,0,909.55,286.74Zm-34,70.65H897v-22a3.91,3.91,0,0,1,3.91-3.91h0a3.91,3.91,0,0,1,3.91,3.91v22h5v-22a3.91,3.91,0,0,1,3.91-3.91h0a3.91,3.91,0,0,1,3.91,3.91v22H939v-34.5H875.55ZM1052,250.3h8.38v-1.58H1052Zm0,5.2h8.38v-1.57H1052Zm0-7.81h8.38v-1.57H1052Zm0,5.21h8.38v-1.58H1052Zm0-16.87v1.25h8.38V236c0-.11,0-.22,0-.32H1052C1052,235.81,1052,235.92,1052,236Zm0,22.07h8.38v-1.57H1052Zm0-13h8.38v-1.57H1052Zm0-5.21h8.38v-1.57H1052Zm0,2.61h8.38v-1.58H1052Zm0,20.51h8.38v-1.27H1052Zm2.81-30.92h2.76a4,4,0,0,0-1.38-.24A3.93,3.93,0,0,0,1054.84,232.08ZM1016.78,263h18.8V236a5.19,5.19,0,0,1,1.82-3.95h0A5.21,5.21,0,0,1,1046,236v27h5V236a5.19,5.19,0,0,1,1.82-3.95h0a5.2,5.2,0,0,1,8.61,3.95v27h18.81V219.1h-63.46Zm30.55-202.54h-5.09V58.35h5.09v-5h2v5h5.46v2.11h-5.46v19.4h2v1.82h-2l.68,2.58h3.2v1.82h-2.71l30.47,115.26h-16.35L1049.46,86.08h-.11l13.44,115.26h-6.45V163.4l-7.83-16.81-7.83,16.81v37.94h-6.45l13.43-115.26h-.1l-15.09,115.26h-16.35l30.47-115.26h-2.71V84.26h3.19l.68-2.58h-2V79.86h1.58Zm1.51,21.22.3,2.58h.08l-.34-2.58Zm-1,2.58h.07l.31-2.58h0Zm33.77,75.1h-9.92l6.37,25.95Zm-56.21,0h-9.91l3.55,25.95Zm17.89,4.61v37.37h10.51V164l-5.25-11.29Zm38.83,39.94h-67.14l-7.24,10.56h81.61Zm-30,56.8h8.38v-1.58H1052Zm6.8,58.25V297a3.91,3.91,0,0,0-3.91-3.91h0A3.91,3.91,0,0,0,1051,297v22h-5V297a3.91,3.91,0,0,0-3.91-3.91h0a3.91,3.91,0,0,0-3.91,3.91v22h-5.61V297.75a15.93,15.93,0,1,1,31.85,0V319Zm-8-32.22a2.28,2.28,0,1,0-2.27,2.27A2.28,2.28,0,0,0,1050.78,286.74ZM1036.61,236v1.25H1045V236c0-.11,0-.22,0-.32h-8.34C1036.62,235.81,1036.61,235.92,1036.61,236Zm2.81-3.95h2.76a4.09,4.09,0,0,0-2.76,0Zm-2.81,7.8H1045v-1.57h-8.38Zm0,2.61H1045v-1.58h-8.38Zm.23-7.81h7.92a4.2,4.2,0,0,0-1-1.58h-6A4.2,4.2,0,0,0,1036.84,234.68Zm-20.06,126.64h63.46v55.27h-63.46Zm14,55.27h3.45V391.13a14.28,14.28,0,0,1,28.56,0v25.46h3.44V390.87a17.73,17.73,0,1,0-35.45,0Zm-14-97.63H1029V297.75a19.53,19.53,0,1,1,39,0V319h12.21V276.1h-63.46Zm0,38.43h21.41v-22a3.91,3.91,0,0,1,3.91-3.91h0a3.91,3.91,0,0,1,3.91,3.91v22h5v-22a3.91,3.91,0,0,1,3.91-3.91h0a3.91,3.91,0,0,1,3.91,3.91v22h21.41v-34.5h-63.46Zm19.83-104.49H1045v-1.58h-8.38Zm0,2.6H1045v-1.57h-8.38Zm0,5.21H1045v-1.58h-8.38Zm0-15.62H1045v-1.57h-8.38Zm0,17.91H1045v-1.27h-8.38Zm0-4.9H1045v-1.57h-8.38Zm0-10.41H1045v-1.57h-8.38Zm0,2.61H1045v-1.58h-8.38Zm15.64-15.62h7.93a4.23,4.23,0,0,0-1-1.58h-6A4.36,4.36,0,0,0,1052.25,234.68Z"/><path class="cls-3" d="M624.09,310.33h5.12V416h-5.12Zm46.36,26.09h18.17V318.26H670.45Zm59.41-26.09V416H735V310.33Zm-94.39,0H723.6V416H705.79V369.05a26.25,26.25,0,0,0-26.25-26.25h0a26.26,26.26,0,0,0-26.26,26.25V416H635.47Zm32.2,28.88H691.4V315.48H667.67Zm76.48-37.83H614.92v6.13H744.15Zm-86.06-56H701v45.36h-42.9Zm1.9,22.77a19.55,19.55,0,1,0,19.55-19.54A19.55,19.55,0,0,0,660,268.13Zm2.71,0A16.84,16.84,0,1,1,679.54,285,16.84,16.84,0,0,1,662.7,268.13Zm15.82-11.51v13.95h0v.05h10a.65.65,0,0,0,.65-.65h0a.65.65,0,0,0-.65-.65h-8.77v-12.7a.65.65,0,0,0-.64-.65h0A.65.65,0,0,0,678.52,256.62ZM637.87,299.2h6V235.69h-6Zm8.3-63.51H712.9V299.2H646.17Zm9.62,57.46h47.49V242.93H655.79Zm59.42-57.46V299.2h6V235.69Zm12.88-8.5H631v4.38h3.41v2.31h90.3v-2.31h3.4ZM721.56,214v11.11h-84V214Zm-10.68,6.07a2.19,2.19,0,0,0-2.19-2.2H650.38a2.2,2.2,0,0,0,0,4.39h58.31A2.19,2.19,0,0,0,710.88,220.05Zm-83.62-7.76H731.81l-51.19-19.87-.31-11.3a3.63,3.63,0,0,0-.2-7.14l-.57-20.35L679,174a3.63,3.63,0,0,0-.2,7.14l-.31,11.3ZM532,346.05h88v-5.41H532Zm5.61,70.54H532V350h5.6ZM575.9,356h11.44v13.66H575.9Zm-32.63-6v66.6h13V385.74H607v30.85h13V350Zm31,4.11h14.62v17.44H574.31Zm-6.92,28.12H556.26v-.51h11.13Zm0-1H556.26v-.74h11.13Zm0-1.18H556.26v-.73h11.13Zm0-1.17H556.26v-.74h11.13Zm0-1.18H556.26V377h11.13Zm0-1.18H556.26v-.5h11.13Zm13.82,5.66h-13v-.51h13Zm0-1h-13v-.74h13Zm0-1.18h-13v-.73h13Zm0-1.17h-13v-.74h13Zm0-1.18h-13V377h13Zm0-1.18h-13v-.5h13ZM595,382.22H582v-.51h13Zm0-1H582v-.74h13Zm0-1.18H582v-.73h13Zm0-1.17H582v-.74h13Zm0-1.18H582V377h13Zm0-1.18H582v-.5h13Zm12,5.66H595.85v-.51H607Zm0-1H595.85v-.74H607Zm0-1.18H595.85v-.73H607Zm0-1.17H595.85v-.74H607Zm0-1.18H595.85V377H607Zm0-1.18H595.85v-.5H607Zm13-64.67L552.26,337h13.22L620,316.79ZM620,337h-43.9L620,321.13Zm207.66,3.66h-88v5.41h88ZM822,350h5.6v66.6H822Zm-38.3,19.66H772.26V356h11.45ZM739.63,350v66.6h13V385.74h50.72v30.85h13V350Zm45.66,21.55H770.67V354.1h14.62Zm6.92,10.17h11.13v.51H792.21Zm0-1.18h11.13v.74H792.21Zm0-1.17h11.13v.73H792.21Zm0-1.18h11.13v.74H792.21Zm0-1.18h11.13v.74H792.21Zm0-.94h11.13v.5H792.21Zm-13.82,5.65h13v.51h-13Zm0-1.18h13v.74h-13Zm0-1.17h13v.73h-13Zm0-1.18h13v.74h-13Zm0-1.18h13v.74h-13Zm0-.94h13v.5h-13Zm-13.81,5.65h13v.51h-13Zm0-1.18h13v.74h-13Zm0-1.17h13v.73h-13Zm0-1.18h13v.74h-13Zm0-1.18h13v.74h-13Zm0-.94h13v.5h-13Zm-12,5.65h11.13v.51H752.62Zm0-1.18h11.13v.74H752.62Zm0-1.17h11.13v.73H752.62Zm0-1.18h11.13v.74H752.62Zm0-1.18h11.13v.74H752.62Zm0-.94h11.13v.5H752.62Zm-13-59.27L794.12,337h13.22l-67.71-25.09Zm0,4.34L783.53,337h-43.9Z"/><rect class="cls-3" y="415.67" width="1140" height="91.96"/><path class="cls-3" d="M886.71,322.61a3.58,3.58,0,0,0-2.47-.82,12.67,12.67,0,0,1-4.69-.79,4.94,4.94,0,0,0-2.33-1.22,6.23,6.23,0,0,0-.9-6.18c1.8-3.94.4-8.9-4.36-10.11-2.08-4.62-5.79-9-10.44-3.8a6.07,6.07,0,0,0-1.28,2.22,13,13,0,0,0-5.15-1.47,5,5,0,0,0-2.76.17,8.3,8.3,0,0,0-2.57,1c-.15-2.14-.3-4.27-.46-6.41.21.14.42.28.65.41A3.93,3.93,0,0,0,851,296c2.33,3.53,7.15,3.89,10.56,1.28a8.1,8.1,0,0,0,.87-.77,3.33,3.33,0,0,0,3.32.29c2.72.75,5.46.69,7.91-1.43a7.06,7.06,0,0,0,1.41-9.33c-2.64-3.79-7.05-3.16-10.33-.7a5,5,0,0,0-1.32-1.22,4,4,0,0,0-4.39-1.27l-.34.17c-.34,0-.68,0-1,.08l-.52-.05a6.5,6.5,0,0,0-4.5-4.1,8.09,8.09,0,0,0-1.71-.24,7.14,7.14,0,0,0-3.12-3.31,5.75,5.75,0,0,0-6.16.19c-1.32-1.23-3.09-1.67-5.39-.7a8.47,8.47,0,0,0-1.53.88l-.09-.06c-3.08-1.85-7.86,1.73-9.86,4-1.72,2-1.47,3.9-.7,5.82a9.94,9.94,0,0,0-3.75,7.15,8.39,8.39,0,0,0,4.89,8,3.88,3.88,0,0,0-1.27,1,8,8,0,0,1-.67.75,4.12,4.12,0,0,0-7.18-.14c0,.06-.07.11-.1.16a12,12,0,0,0-4.38,4.17c-2,2.93,1.73,5.68,4.38,5.07a8.84,8.84,0,0,0,2.17-.82,4.1,4.1,0,0,0,1.49.09,6.67,6.67,0,0,0,.88.34c3,.88,5.7-.21,7.87-2.11a6.14,6.14,0,0,0,5.41-5.17,7,7,0,0,0,2.44-1.22,10.46,10.46,0,0,0,3-3.64,6.66,6.66,0,0,0,1.18-.05,4.1,4.1,0,0,0,1.83,1.08,18.41,18.41,0,0,0,3.51,8.68,6.26,6.26,0,0,0,2.59,4.52q0,15.93-.54,31.87c-1.58-5.4-4.35-10.59-5.86-16.08a9.81,9.81,0,0,0,3.93-4.14,11.1,11.1,0,0,0,1.67-3.83,11.29,11.29,0,0,0,.16-2.52,8.33,8.33,0,0,0-.79-5.51,2,2,0,0,0-.69-.73,5,5,0,0,0-1.73-2.24c-3.7-2.76-8.47.36-9.86,4.17a7.33,7.33,0,0,0-2.47-.21,3.93,3.93,0,0,0-2.19-1.45,1.57,1.57,0,0,0-.3-.05,4.05,4.05,0,0,0-1.56-1.07c-3.08-1.21-6.14,1.41-6.1,4.56a4.16,4.16,0,0,0,0,.6c-.21.26-.4.53-.57.78a8.94,8.94,0,0,0-1.52,4.67,3.71,3.71,0,0,0-2.44.35,4,4,0,0,0-1.83,2,4.31,4.31,0,0,0-3.68,2.35,4.51,4.51,0,0,0-.49,1.48,5.85,5.85,0,0,0-1,1,6.87,6.87,0,0,0-6.87,6.79,3,3,0,0,0,1.69,2.59,9.5,9.5,0,0,0,10.42-2.26,2.81,2.81,0,0,0,1.52-2.3,1.42,1.42,0,0,1,.08-.18,7.72,7.72,0,0,0,5,.11,4.18,4.18,0,0,0,2.77,5.29c2.81.84,4.75-.57,6-2.67a9,9,0,0,0,2.41-1.33c2.15,1.47,5,1.5,6.82,3.46h0c.7,1.48,1.49,2.83,2.37,4.32a21.93,21.93,0,0,1,2.62,7c-1.68,9.13-.42,19.4.54,28.77-.45,7.13-.79,14.25-.76,21.35a20,20,0,0,0-.26,4.21,2.85,2.85,0,0,0-1.58,4.28l.91,1.47A2.77,2.77,0,0,0,849,410a.16.16,0,0,0,0-.07,14.6,14.6,0,0,0,4.53-.73,2.36,2.36,0,0,0,.64-4.05,2.28,2.28,0,0,0,.38-1.35c-.4-13.36-1.72-26.8-3.15-40.15,0-2.88,0-5.74.05-8.59.1-.65.22-1.29.37-1.93.74-3.2,2.53-5.88,4-8.78a58.75,58.75,0,0,0,3.89-10,3.81,3.81,0,0,0,.41.58,4.09,4.09,0,0,0,3,1.33,7.33,7.33,0,0,0,7.22,2.82c3.29,2.12,7.82-.71,7.32-4.48a16.67,16.67,0,0,0,2.21-1.94,5,5,0,0,0,5.08.91c3.48.07,7.16-1.37,8.38-4.82C895,324.16,890.76,322.54,886.71,322.61Zm-40-17.86a8.43,8.43,0,0,0-.79,2.15,13.16,13.16,0,0,1-1.21-1.8,20.78,20.78,0,0,1-1.85-4.83A5.11,5.11,0,0,0,848,298l.24-.41c0,1.67,0,3.35.08,5A8,8,0,0,0,846.75,304.75ZM841.94,338a1,1,0,0,0-.1-.37c-1-2.06-3.18-2.42-5.21-3.09a8.14,8.14,0,0,1-1.5-.67,9.53,9.53,0,0,0,.72-1.14l.33-.05a4.32,4.32,0,0,0,3.16-2.54l.44-.1a41.67,41.67,0,0,0,2.46,8.21C842.13,338.17,842.05,338.07,841.94,338Zm8.59-23.54a8.4,8.4,0,0,0,1.31.34,6,6,0,0,0,3.69,1.57h.08c-.63,1.19-1.31,2.36-2,3.52-.9,1.41-1.81,2.8-2.59,4.23C850.86,320.91,850.7,317.68,850.53,314.46Zm1.57,33.12c-.22.39-.42.78-.62,1.16q0-10.64-.37-21.26c.23-.58.49-1.14.76-1.7a6.49,6.49,0,0,0,1.6,4.74,8.9,8.9,0,0,0,4.32,2.56,4.69,4.69,0,0,0,1.26.43A99.85,99.85,0,0,1,852.1,347.58Zm10-26.71a6.2,6.2,0,0,0-7.39-.09c.51-.84,1-1.69,1.52-2.56a.43.43,0,0,0,.52-.19l.45-.69a6.84,6.84,0,0,0,1.83,1.35,4.34,4.34,0,0,0,.8.3,6.54,6.54,0,0,0,6,1.18,10.22,10.22,0,0,0,1,1.07A17,17,0,0,0,862.1,320.87Z"/><path class="cls-3" d="M1057.54,334.83c1.08,3.07,4.36,4.35,7.47,4.29a4.16,4.16,0,0,0,2.19.25,4.21,4.21,0,0,0,2.35-1.06,13.85,13.85,0,0,0,2,1.73c-.45,3.37,3.59,5.89,6.53,4a6.52,6.52,0,0,0,6.44-2.52,3.7,3.7,0,0,0,2.7-1.18,4.49,4.49,0,0,0,.37-.52,51.83,51.83,0,0,0,3.47,8.91c1.3,2.59,2.89,5,3.56,7.83.13.57.24,1.15.32,1.72,0,2.54,0,5.1,0,7.67-1.28,11.92-2.45,23.91-2.81,35.83a2,2,0,0,0,.34,1.21,2.11,2.11,0,0,0,.57,3.61,13,13,0,0,0,4,.65.43.43,0,0,0,0,.07,2.47,2.47,0,0,0,4.22.25l.81-1.32a2.54,2.54,0,0,0-1.41-3.82,17.55,17.55,0,0,0-.23-3.75c0-6.34-.28-12.7-.67-19.06.85-8.36,2-17.53.47-25.67a19.67,19.67,0,0,1,2.34-6.23c.79-1.33,1.5-2.54,2.12-3.86h0c1.65-1.76,4.17-1.78,6.08-3.09A8.09,8.09,0,0,0,1113,342c1.09,1.88,2.82,3.14,5.33,2.39a3.74,3.74,0,0,0,2.48-4.73,6.89,6.89,0,0,0,4.42-.09l.07.16a2.51,2.51,0,0,0,1.36,2.05,8.47,8.47,0,0,0,9.29,2,2.68,2.68,0,0,0,1.52-2.31,6.13,6.13,0,0,0-6.13-6.06,4.72,4.72,0,0,0-.87-.91,4,4,0,0,0-.43-1.33,3.87,3.87,0,0,0-3.28-2.1,3.64,3.64,0,0,0-1.64-1.8,3.35,3.35,0,0,0-2.17-.31,7.92,7.92,0,0,0-1.36-4.16c-.15-.23-.32-.47-.51-.71a4.73,4.73,0,0,0,0-.53,4.11,4.11,0,0,0-5.44-4.07,3.73,3.73,0,0,0-1.39,1l-.27,0a3.55,3.55,0,0,0-2,1.3,6.74,6.74,0,0,0-2.2.18c-1.25-3.4-5.51-6.18-8.81-3.72a4.4,4.4,0,0,0-1.54,2,1.83,1.83,0,0,0-.62.65,7.4,7.4,0,0,0-.7,4.92,9.06,9.06,0,0,0,.15,2.25,9.62,9.62,0,0,0,1.49,3.42,8.6,8.6,0,0,0,3.5,3.69c-1.35,4.9-3.82,9.54-5.23,14.35q-.47-14.22-.49-28.44a5.58,5.58,0,0,0,2.32-4,16.41,16.41,0,0,0,3.13-7.74,3.6,3.6,0,0,0,1.63-1,6.27,6.27,0,0,0,1.06,0,9.27,9.27,0,0,0,2.66,3.25,6.3,6.3,0,0,0,2.18,1.09,5.46,5.46,0,0,0,4.82,4.61,7.28,7.28,0,0,0,7,1.88,5.24,5.24,0,0,0,.78-.3,3.47,3.47,0,0,0,1.33-.08,8,8,0,0,0,1.93.73c2.38.54,5.69-1.91,3.92-4.52a10.77,10.77,0,0,0-3.91-3.72l-.09-.15a3.67,3.67,0,0,0-6.41.13,7.73,7.73,0,0,1-.6-.67,3.58,3.58,0,0,0-1.13-.86,7.49,7.49,0,0,0,4.36-7.16,8.8,8.8,0,0,0-3.35-6.37c.69-1.72.91-3.44-.62-5.2-1.78-2-6-5.23-8.8-3.58l-.08.06a6.8,6.8,0,0,0-1.37-.79,4.15,4.15,0,0,0-4.8.62,5.12,5.12,0,0,0-5.5-.16,6.33,6.33,0,0,0-2.79,2.95,6.86,6.86,0,0,0-1.52.21,5.81,5.81,0,0,0-4,3.66l-.46.05c-.31,0-.61-.06-.91-.08l-.3-.14a3.55,3.55,0,0,0-3.92,1.13A4.23,4.23,0,0,0,1083,296c-2.93-2.2-6.87-2.76-9.22.62a6.3,6.3,0,0,0,1.26,8.33c2.18,1.89,4.63,1.94,7.06,1.28a3,3,0,0,0,3-.26,6.44,6.44,0,0,0,.78.68c3,2.33,7.34,2,9.42-1.14a3.39,3.39,0,0,0,1-.35c.21-.12.4-.24.58-.36q-.21,2.85-.41,5.72a7.21,7.21,0,0,0-2.29-.86,4.48,4.48,0,0,0-2.46-.16,11.8,11.8,0,0,0-4.6,1.32,5.65,5.65,0,0,0-1.14-2c-4.15-4.63-7.47-.73-9.32,3.39-4.25,1.08-5.5,5.51-3.89,9a5.55,5.55,0,0,0-.81,5.51,4.27,4.27,0,0,0-2.07,1.09,11.53,11.53,0,0,1-4.19.7,3.18,3.18,0,0,0-2.2.74C1059.85,329.27,1056.08,330.71,1057.54,334.83Zm40.17-23.31c0-1.5,0-3,.07-4.49l.21.37a4.58,4.58,0,0,0,4.58,2,18.41,18.41,0,0,1-1.66,4.3,10.52,10.52,0,0,1-1.08,1.61,7.5,7.5,0,0,0-.7-1.92A6.94,6.94,0,0,0,1097.71,311.52Zm5.45,31.77a37.78,37.78,0,0,0,2.19-7.32l.39.08a3.86,3.86,0,0,0,2.82,2.27l.3.05a8.19,8.19,0,0,0,.64,1,8.14,8.14,0,0,1-1.34.6c-1.81.6-3.72.92-4.65,2.76a1,1,0,0,0-.09.33A2.75,2.75,0,0,0,1103.16,343.29Zm-7.81-12.6c-.7-1.27-1.5-2.51-2.3-3.78-.66-1-1.26-2.08-1.83-3.14h.07a5.44,5.44,0,0,0,3.3-1.41,7.91,7.91,0,0,0,1.16-.3C1095.6,324.94,1095.46,327.81,1095.35,330.69Zm-7.2,8.37a4.36,4.36,0,0,0,1.12-.38,8,8,0,0,0,3.87-2.29,5.81,5.81,0,0,0,1.42-4.22c.24.49.47,1,.68,1.51q-.33,9.48-.33,19c-.18-.35-.36-.7-.56-1A90.34,90.34,0,0,1,1088.15,339.06Zm-6.93-10.95a9,9,0,0,0,.9-.95,5.85,5.85,0,0,0,5.34-1.05,4.18,4.18,0,0,0,.71-.28,6.09,6.09,0,0,0,1.63-1.2l.4.62a.4.4,0,0,0,.46.17c.45.78.91,1.53,1.36,2.28a5.53,5.53,0,0,0-6.59.08A15.57,15.57,0,0,0,1081.22,328.11Z"/><path class="cls-3" d="M90.89,334c-2.41-3.38-5.72-5.6-10-5.45a2.21,2.21,0,0,0-2,2.1l-.26-.05a5.29,5.29,0,0,0-.32-.5,3.61,3.61,0,0,0,1-3.67c-.9-2.52,1.53-4.64-1.18-6.95.05-3-2.33-5.43-4.39-8a4,4,0,0,0-4.8-.7,10.32,10.32,0,0,0-2.07-3.13c-2-2.19-3.53-6.14-6.65-7.07a2,2,0,0,0,.11-.29,4.1,4.1,0,0,0,2.46-3c.52-2.63-1.6-5.36-4.27-4.68a9.15,9.15,0,0,0-2.43-4.49l.16,0c2.32-.36,1.87-3.64,0-4.26.78.26-.57-2.18-.73-2.37a6.37,6.37,0,0,0-2.29-1.55,7.5,7.5,0,0,0-2.58-.51,4.27,4.27,0,0,0-2.29-2.09,4.18,4.18,0,0,0-4.22.76,3.16,3.16,0,0,0-2.77,3.13c-.86.3-1.71.73-1.8.76a3.38,3.38,0,0,0-2.25,2.9,13.44,13.44,0,0,1-3.36-1c-1.79-.81-4.54.57-3.71,2.85s2.45,3.32,4.7,4.4a23,23,0,0,0,4.75,1.77c1.59.36,3.67.14,5.18.68a11.87,11.87,0,0,1,1.64.91,8.17,8.17,0,0,0,3.4,5.05,5.73,5.73,0,0,0,4.57.84c.08.17.16.36.25.53l0,0a1.68,1.68,0,0,0,.13.62,9.15,9.15,0,0,0-2.15.31,12,12,0,0,0-2,1.16c0-.14-.05-.28-.09-.42a8.56,8.56,0,0,0-2.1-3.66,6.84,6.84,0,0,0-2.06-1.4A7.52,7.52,0,0,0,37,294.56a5.14,5.14,0,0,0-1.74.54c-.49.26-.94.53-1.4.81l-.07,0c-4.33-1.28-11.7-1.34-13.45,4a4.92,4.92,0,0,0,1.21,5.52,6,6,0,0,0,.21,3.37,6.73,6.73,0,0,0-.3,1.47c-2-.14-3.72.72-4.23,3.46a7.83,7.83,0,0,0,0,2.81,5.09,5.09,0,0,0-.71.81l-.15-.09a7.17,7.17,0,0,0-7,.14,11.62,11.62,0,0,0-2.72,2.24c-4.26.49-7.42,4.87-8.66,9-1.47,4.89,3.14,8,7.45,7.45a14.86,14.86,0,0,0,7.93-3.39A18.81,18.81,0,0,0,15,331.2a10,10,0,0,0,3.74.18,8,8,0,0,0-2.13,2.94c-.56,1.31-.29,3.46,1.52,3.73a10.12,10.12,0,0,0,7.56-1.47c2.42-.52,3.23-3.37,4.19-6l.44.45a2.88,2.88,0,0,0,2.43.76c.44,9.24,2.45,17.91,4.59,27.57a.58.58,0,0,0,.16.29c0,5.07,0,10.15.06,15.24.12,9.6.3,19.2.89,28.78.34,5.41.47,11.11,3.78,15.43,0,.32,0,.63,0,.95.11,2.11,3.6,2.89,3.94.53,2.42-17.19,2.14-34.95,3.41-52.28.12-1.6.22-3.21.33-4.81.55-4,1.08-7.23,2.92-11a42.72,42.72,0,0,0,3-6.77A116.79,116.79,0,0,0,59,331a8.83,8.83,0,0,0,4.82-.71c.09.05.2.08.29.12a10.06,10.06,0,0,0-1.69,2.93,3,3,0,0,0,2.09,3.7,34.52,34.52,0,0,0,5.84.37,11.72,11.72,0,0,1,1.19.15c.07.26.12.52.2.78a1.91,1.91,0,0,0,2.54,1.17,5.66,5.66,0,0,0,7.07-1.17,54.06,54.06,0,0,0,8.2-1.11A2.23,2.23,0,0,0,90.89,334Zm-64.09-3.7a2.36,2.36,0,0,0-1-.5h0a2.75,2.75,0,0,0,.21-.51,8.93,8.93,0,0,0,1.23-.8c.12,0,.24-.05.35-.07C27.37,329,27.09,329.69,26.8,330.31Zm10.73,23.77c-1.5-7.68-3.16-15-3.81-22.6a2.33,2.33,0,0,0,.92-1A9,9,0,0,0,35.81,327a2.93,2.93,0,0,0-.89-2.77,8.44,8.44,0,0,0,3.44-2.34C38,332.62,37.65,343.35,37.53,354.08Zm12.59-31.84a2.84,2.84,0,0,0-1.08,0,2.94,2.94,0,0,0-3.81-1.17,14.33,14.33,0,0,0-4,2.72c-1.72,1.48-.21,4.14,1.67,4.25a3,3,0,0,0,3.09,1,10.07,10.07,0,0,1,3.61-.38c.09.12.16.24.26.35-1.74,12-3.35,24-4.51,36-.87,9-1.91,18.24-2.62,27.5-2.24-24.08-2.52-48.66-3-72.65.18-.39.37-.83.56-1.28a16.55,16.55,0,0,0,7.61-.18,6.87,6.87,0,0,0,2.39,3.65Zm2.57,27c-.75,1.53-1.46,2.87-2.1,4.16.5-7.63,1-15.25,1.51-22.87a5.62,5.62,0,0,0,4-.38,9.28,9.28,0,0,0,1.82.66C56.81,337.2,55.4,343.72,52.69,349.25ZM83,334.38a4.16,4.16,0,0,0-.21-1.21,8.89,8.89,0,0,1,1.87.81C84.12,334.13,83.57,334.27,83,334.38Z"/><path class="cls-3" d="M567.9,327.63c-2.4-3.39-5.72-5.61-10-5.45a2.2,2.2,0,0,0-2,2.1l-.27,0c-.1-.17-.2-.35-.31-.51a3.59,3.59,0,0,0,1-3.66c-.9-2.53,1.54-4.64-1.18-6.95.06-3-2.33-5.44-4.39-8a4.07,4.07,0,0,0-4.8-.7,10.1,10.1,0,0,0-2.07-3.12c-2-2.19-3.53-6.15-6.65-7.07,0-.1.08-.19.11-.29a4.09,4.09,0,0,0,2.46-3c.53-2.64-1.6-5.36-4.27-4.68a9.13,9.13,0,0,0-2.42-4.49l.15,0c2.32-.36,1.87-3.65,0-4.27.79.26-.56-2.18-.73-2.36a6.29,6.29,0,0,0-2.29-1.55,7.18,7.18,0,0,0-2.57-.51,4.23,4.23,0,0,0-2.29-2.09,4.17,4.17,0,0,0-4.23.76,3.17,3.17,0,0,0-2.77,3.13,18.34,18.34,0,0,0-1.79.75,3.39,3.39,0,0,0-2.26,2.91,13.9,13.9,0,0,1-3.36-1c-1.79-.81-4.54.57-3.71,2.86s2.45,3.32,4.7,4.4a22.62,22.62,0,0,0,4.75,1.76c1.59.37,3.68.15,5.19.69a11,11,0,0,1,1.64.91,8.22,8.22,0,0,0,3.39,5,5.7,5.7,0,0,0,4.58.83c.08.18.15.36.25.54,0,0,0,0,0,0a1.51,1.51,0,0,0,.14.62,9.08,9.08,0,0,0-2.15.31,10.82,10.82,0,0,0-2,1.16c0-.14,0-.28-.08-.42a8.69,8.69,0,0,0-2.1-3.67,7.3,7.3,0,0,0-2.06-1.4,7.55,7.55,0,0,0-9.42-2.92,5.38,5.38,0,0,0-1.75.55c-.49.25-.94.53-1.4.8l-.07,0c-4.33-1.28-11.69-1.34-13.44,4a4.93,4.93,0,0,0,1.2,5.53,5.94,5.94,0,0,0,.22,3.36,6.43,6.43,0,0,0-.31,1.47c-2-.13-3.71.72-4.23,3.47a8.31,8.31,0,0,0,0,2.81,5,5,0,0,0-.7.8l-.16-.08a7.15,7.15,0,0,0-7,.13,11.75,11.75,0,0,0-2.73,2.25c-4.26.49-7.42,4.87-8.66,9-1.46,4.9,3.15,8.05,7.45,7.46a14.86,14.86,0,0,0,7.94-3.4,18.62,18.62,0,0,0,1.55-1.52,9.62,9.62,0,0,0,3.74.18,8.12,8.12,0,0,0-2.13,2.94c-.56,1.32-.28,3.47,1.52,3.74a10.19,10.19,0,0,0,7.57-1.47c2.41-.52,3.22-3.37,4.18-6,.14.13.28.28.44.45a2.86,2.86,0,0,0,2.44.75c.44,9.25,2.44,17.92,4.58,27.58a.53.53,0,0,0,.17.28q0,7.62,0,15.25c.13,9.59.3,19.19.9,28.77.33,5.42.46,11.11,3.78,15.44,0,.31,0,.63,0,.94.12,2.12,3.61,2.9,3.94.54,2.42-17.19,2.14-35,3.41-52.28.12-1.6.22-3.21.34-4.81.55-4,1.08-7.24,2.91-11a44.12,44.12,0,0,0,3-6.77A118.55,118.55,0,0,0,536,324.65a8.83,8.83,0,0,0,4.82-.71l.3.12a10.08,10.08,0,0,0-1.7,2.93,3,3,0,0,0,2.1,3.69,34.48,34.48,0,0,0,5.83.38,11.71,11.71,0,0,1,1.19.14c.08.26.12.53.21.79a1.9,1.9,0,0,0,2.53,1.17,5.68,5.68,0,0,0,7.08-1.18,52.86,52.86,0,0,0,8.19-1.11A2.21,2.21,0,0,0,567.9,327.63Zm-64.09-3.71a2.5,2.5,0,0,0-1-.49h0a2.07,2.07,0,0,0,.2-.52,7.16,7.16,0,0,0,1.23-.79c.12,0,.24-.05.36-.07C504.38,322.65,504.11,323.3,503.81,323.92Zm10.73,23.78c-1.5-7.68-3.16-15-3.81-22.6a2.36,2.36,0,0,0,.92-1,8.92,8.92,0,0,0,1.18-3.5,3,3,0,0,0-.9-2.77,8.5,8.5,0,0,0,3.45-2.35C515,326.24,514.66,337,514.54,347.7Zm12.6-31.85a2.91,2.91,0,0,0-1.08,0,3,3,0,0,0-3.82-1.18,14.93,14.93,0,0,0-4,2.72c-1.72,1.49-.21,4.15,1.68,4.26a3,3,0,0,0,3.08,1,10.32,10.32,0,0,1,3.62-.37,3.79,3.79,0,0,0,.25.35c-1.74,12-3.34,24-4.51,36-.86,9-1.91,18.24-2.61,27.49-2.25-24.07-2.53-48.65-3-72.65.18-.39.37-.83.56-1.27a16.42,16.42,0,0,0,7.61-.19,6.86,6.86,0,0,0,2.4,3.65C527.25,315.72,527.2,315.79,527.14,315.85Zm2.56,27c-.74,1.53-1.46,2.87-2.09,4.15.49-7.62,1-15.24,1.51-22.86a5.63,5.63,0,0,0,4-.38,9.19,9.19,0,0,0,1.81.66C533.83,330.81,532.41,337.33,529.7,342.87ZM560,328a3.75,3.75,0,0,0-.21-1.21,8.2,8.2,0,0,1,1.87.81C561.13,327.74,560.58,327.88,560,328Z"/><path class="cls-3" d="M523.92,413.11a5.58,5.58,0,0,0-2.9.06,6.39,6.39,0,0,0-2.53-4.44c0-3.55-3.58-5.9-6.74-5.3a4.88,4.88,0,0,0-2.91-3.14c-2.23-.81-5.64.1-7.45,1.52a5.31,5.31,0,0,0-1.87,2.9,5.55,5.55,0,0,0-3.44-.12,5.48,5.48,0,0,0-1.88.91,4,4,0,0,0-5.4.85,6.85,6.85,0,0,0-1.12,5.48,16.16,16.16,0,0,0-3.2,1c-3.14,1.38-1.91,6,.89,6.84.64.2,1.33.41,2.06.6a2.14,2.14,0,0,0,2.42,1.8c.5-.08,2.23-.41,3.81-.54a7.11,7.11,0,0,0,1.9,0,2.19,2.19,0,0,0,2.05,1.29,3,3,0,0,0,2.23-1.05l.41-.17a3.86,3.86,0,0,0,3.75.95,7.84,7.84,0,0,0,2.65,1.21c1.63.08,2.71-1,4.3-1,2-.07,4.14.12,6.23.06a2.7,2.7,0,0,0,1.2,0l.41-.1A10.45,10.45,0,0,0,524,421C526.57,419.1,528.14,414.18,523.92,413.11Z"/><path class="cls-3" d="M66.77,406.85a6.29,6.29,0,0,0-3.34.08,7.38,7.38,0,0,0-2.92-5.12c0-4.1-4.13-6.81-7.78-6.12a5.65,5.65,0,0,0-3.35-3.62c-2.57-.94-6.51.12-8.59,1.75a6.24,6.24,0,0,0-2.16,3.35,6.38,6.38,0,0,0-4-.15,6.45,6.45,0,0,0-2.17,1.05,4.65,4.65,0,0,0-6.23,1A7.87,7.87,0,0,0,25,405.38a19,19,0,0,0-3.7,1.19c-3.61,1.6-2.19,6.9,1,7.9.74.23,1.54.47,2.38.69a2.47,2.47,0,0,0,2.79,2.08c.57-.1,2.57-.47,4.39-.63a8.46,8.46,0,0,0,2.19,0,2.54,2.54,0,0,0,2.37,1.49,3.41,3.41,0,0,0,2.57-1.2l.48-.2a4.46,4.46,0,0,0,4.32,1.09,9.24,9.24,0,0,0,3.05,1.4c1.88.09,3.13-1.13,5-1.19,2.31-.08,4.76.13,7.17.07a3.3,3.3,0,0,0,1.4,0,4.05,4.05,0,0,0,.47-.12,12,12,0,0,0,6-2.07C69.82,413.76,71.64,408.09,66.77,406.85Z"/><path class="cls-3" d="M882.65,403a43.6,43.6,0,0,0-6,.8,6,6,0,0,0-3.23-2.15,6.86,6.86,0,0,0-2.37-.19l0-.05a8.59,8.59,0,0,0-1.17-1.23,7.22,7.22,0,0,0-2.4-7.77,8,8,0,0,0-8.91-.48,6.78,6.78,0,0,0-3.8-1.08,6.88,6.88,0,0,0-5.87,3.27,7.49,7.49,0,0,0-.69,1.47,7.49,7.49,0,0,0-2.13.46,9.6,9.6,0,0,0-1-.17,9,9,0,0,0-10,7.15l-.55.14a4.56,4.56,0,0,0-5.72.87c-2.21,2.4-3.08,5.64-1.35,8.65a5.46,5.46,0,0,0,1.58,1.75,5.2,5.2,0,0,0,2.77,1.37c1.62,3.35,6.33,4.46,8.78,1.85a119.89,119.89,0,0,0,23.81-.31c5.54,2.72,12.83.43,17.93-2.1a3.12,3.12,0,0,0,1.89-3.24,13.88,13.88,0,0,0,2.06-4.23A3.8,3.8,0,0,0,882.65,403Z"/><path class="cls-3" d="M1113.32,403.52a43.59,43.59,0,0,0-6,.79,6,6,0,0,0-3.22-2.14,6.88,6.88,0,0,0-2.37-.19l0-.06a8.5,8.5,0,0,0-1.17-1.22,7.24,7.24,0,0,0-2.4-7.78,8,8,0,0,0-8.9-.48,7,7,0,0,0-9.67,2.2,6.71,6.71,0,0,0-.7,1.46,7.86,7.86,0,0,0-2.13.47,7.1,7.1,0,0,0-1-.18,9,9,0,0,0-10,7.16l-.54.13a4.57,4.57,0,0,0-5.72.87c-2.22,2.41-3.08,5.64-1.36,8.66a5.8,5.8,0,0,0,1.58,1.75,5.19,5.19,0,0,0,2.77,1.36c1.62,3.35,6.33,4.47,8.79,1.85a119.8,119.8,0,0,0,23.8-.3c5.55,2.71,12.83.42,17.93-2.11a3.1,3.1,0,0,0,1.89-3.24,13.9,13.9,0,0,0,2.07-4.23A3.8,3.8,0,0,0,1113.32,403.52Z"/></svg>