<svg id="圖層_1" data-name="圖層 1" xmlns="http://www.w3.org/2000/svg" viewBox="0 0 150 80"><defs><style>.cls-1{fill:#80b9b7;}.cls-2{font-size:16.61px;fill:#fff;font-family:GalanoGrotesqueDEMO-Bold, GalanoGrotesqueDEMO Bold;font-weight:700;}.cls-3{font-size:18.83px;fill:#5496ca;font-family:MicrosoftYaHei, Microsoft YaHei;}.cls-4{fill:#4a83bd;}</style></defs><title>logo-03</title><polygon class="cls-1" points="149.95 54.54 144.76 67.06 149.95 79.59 0.31 79.59 5.5 67.06 0.31 54.54 149.95 54.54"/><text class="cls-2" transform="translate(20.56 73.03)">TIME TO TRAVEL</text><text class="cls-3" transform="translate(19.14 46.11)">暢遊胡志明</text><rect class="cls-4" x="88.99" y="14.34" width="51.05" height="2.08"/><rect class="cls-4" x="7.19" y="14.34" width="51.05" height="2.08"/><polygon class="cls-4" points="77.28 13.3 77.28 13.49 72.92 13.49 72.92 13.3 70.45 2.92 71.96 2.92 77.28 13.3"/><polygon class="cls-4" points="77.28 17.45 77.28 17.26 72.92 17.26 72.92 17.45 70.45 27.83 71.96 27.83 77.28 17.45"/><polygon class="cls-4" points="66 15.85 63.92 15.85 62.84 20.38 63.68 20.38 66 15.85"/><polygon class="cls-4" points="66 14.9 63.92 14.9 62.84 10.38 63.68 10.38 66 14.9"/><path class="cls-4" d="M75,17.45c-6.46,0-11.69-.93-11.69-2.07S68.58,13.3,75,13.3h4.47c2.69,0,4.87.93,4.87,2.08s-2.18,2.07-4.87,2.07Z"/></svg>